# xmcd
#
# Track frame offsets:
#	150
#	16185
#	32230
#	44206
#	62673
#	78678
#	93309
#	116579
#	129905
#	148505
#
# Disc length: 2174 seconds
#
# Revision: 0
# Processed by: cddbd v1.5.2PL0 Copyright (c) Steve Scherf et al.
# Submitted via: dBpowerAMP V4.0
#
DISCID=86087c0a
DTITLE=Duane Stailey - Two Lane Highway
DYEAR=2006
DGENRE=Country
TTITLE0=Baby Come Back
TTITLE1=Perfect Stranger
TTITLE2=Redneckville
TTITLE3=New Tattoo
TTITLE4=I See Me Loving You
TTITLE5=Good 'Ol Days
TTITLE6=Take My Hand
TTITLE7=Get Back Home
TTITLE8=Two Lane Highway
TTITLE9=I Don"t Know Why
EXTD=
EXTT0=
EXTT1=
EXTT2=
EXTT3=
EXTT4=
EXTT5=
EXTT6=
EXTT7=
EXTT8=
EXTT9=
PLAYORDER=
